<svg width="100%" height="100%" viewBox="0 0 132 184" version="1.1" xmlns="http://www.w3.org/2000/svg" xml:space="preserve"  style="fill-rule:evenodd;clip-rule:evenodd;stroke-miterlimit:10;">
    <g id="Artboard1" transform="matrix(1,0,0,1,3,3)">
        <rect x="-3" y="-3" width="132" height="184" style="fill:none;"/>
      <g transform="matrix(1,0,0,1,-12599.6,-13428.6)">
            <g transform="matrix(1,0,0,1,12599.6,13496)">
                <path d="M56.8,92.06C54.93,92.094 53.081,91.65 51.43,90.77L3.43,63.19C1.988,62.541 1.014,61.148 0.9,59.57L0.9,43.65C0.989,42.071 1.945,40.665 3.38,40L51.44,12.59C54.807,10.871 58.803,10.871 62.17,12.59L110.22,40.07C111.646,40.73 112.6,42.122 112.7,43.69L112.7,59.61C112.596,61.177 111.643,62.567 110.22,63.23L62.16,90.77C60.514,91.652 58.668,92.096 56.8,92.06Z" style="fill:rgb(212,214,217);fill-rule:nonzero;"/>
              <path d="M56.8,12.19C58.513,12.16 60.207,12.566 61.72,13.37L109.77,40.85C110.897,41.369 111.661,42.455 111.77,43.69L111.77,59.61C111.661,60.845 110.897,61.931 109.77,62.45L61.72,90C58.628,91.559 54.972,91.559 51.88,90L3.83,62.41C2.705,61.89 1.941,60.805 1.83,59.57L1.83,43.65C1.939,42.415 2.703,41.329 3.83,40.81L51.88,13.37C53.393,12.565 55.087,12.159 56.8,12.19M56.8,10.4C54.778,10.367 52.781,10.853 51,11.81L3,39.24C1.273,40.052 0.121,41.746 -0,43.65L0,59.57C0.092,61.469 1.218,63.172 2.93,64L51,91.55C54.644,93.434 58.986,93.434 62.63,91.55L110.67,64C112.368,63.172 113.491,61.486 113.6,59.6L113.6,43.69C113.491,41.804 112.368,40.118 110.67,39.29L62.61,11.8C60.824,10.846 58.824,10.364 56.8,10.4Z" style="fill:rgb(102,106,110);fill-rule:nonzero;"/>
              <path d="M61.72,74.07C58.628,75.629 54.972,75.629 51.88,74.07L51.88,90C54.972,91.559 58.628,91.559 61.72,90L61.72,74.07Z" style="fill:url(#_Linear1);fill-rule:nonzero;"/>
              <path d="M109.77,46.53L61.72,74.07L61.72,90L109.82,62.46C110.947,61.941 111.711,60.855 111.82,59.62L111.82,43.69C111.702,44.937 110.916,46.025 109.77,46.53Z" style="fill:rgb(175,180,184);fill-rule:nonzero;"/>
              <path d="M109.77,40.85L61.77,13.37C58.68,11.802 55.02,11.802 51.93,13.37L3.83,40.81C1.12,42.37 1.12,44.92 3.83,46.49L51.88,74.07C54.972,75.629 58.628,75.629 61.72,74.07L109.77,46.53C112.48,45 112.48,42.41 109.77,40.85Z" style="fill:rgb(212,214,217);fill-rule:nonzero;"/>
              <path d="M106,41.5L59.17,14.7C57.68,13.95 55.92,13.95 54.43,14.7L7.57,41.45C6.26,42.2 6.26,43.45 7.57,44.18L54.43,71.08C55.916,71.83 57.674,71.83 59.16,71.08L106,44.23C107.33,43.48 107.33,42.25 106,41.5Z" style="fill:white;fill-rule:nonzero;"/>
              <path d="M28.44,64.67C30.039,65.715 31.047,67.463 31.15,69.37C31.15,71.1 29.92,71.79 28.42,70.93C26.817,69.888 25.805,68.139 25.7,66.23C25.71,64.5 26.93,63.8 28.44,64.67Z" style="fill:rgb(175,180,184);fill-rule:nonzero;"/>
              <path d="M60,60.57C59.887,60.569 59.776,60.548 59.67,60.51C59.289,60.36 58.921,60.18 58.57,59.97L28.25,42.14L28.16,42.14L23.93,39.66C20.74,37.78 18.98,33.94 18.93,28.83C18.93,23.35 20.93,16.97 24.55,11.34C24.624,11.219 24.727,11.12 24.85,11.05L42,1C42.282,0.84 42.628,0.84 42.91,1L78.07,21.64C81.46,23.35 83.44,27.39 83.46,32.7C83.46,38.18 81.46,44.55 77.84,50.18C77.763,50.301 77.656,50.401 77.53,50.47L60.46,60.47C60.318,60.542 60.159,60.577 60,60.57Z" style="fill:rgb(102,106,110);fill-rule:nonzero;"/>
              <path d="M42.41,1.8L77.62,22.42C80.62,23.95 82.54,27.51 82.56,32.7C82.56,38.22 80.44,44.42 77.08,49.7L60,59.67C59.598,59.512 59.213,59.314 58.85,59.08L58.94,59.14L28.7,41.37L24.41,38.85C21.63,37.21 19.91,33.73 19.89,28.85C19.89,23.32 22.01,17.12 25.37,11.85L42.44,1.85M42.41,0C42.089,-0.003 41.774,0.084 41.5,0.25L24.43,10.25C24.183,10.396 23.974,10.598 23.82,10.84C20.14,16.61 18.04,23.16 18.06,28.84C18.06,34.28 20,38.4 23.47,40.44L27.71,42.93L27.83,43L58,60.68L58.11,60.75C58.491,60.973 58.889,61.167 59.3,61.33C59.513,61.417 59.74,61.461 59.97,61.46C60.289,61.461 60.603,61.378 60.88,61.22L78,51.25C78.249,51.111 78.459,50.911 78.61,50.67C82.29,44.9 84.39,38.35 84.37,32.67C84.35,26.99 82.21,22.67 78.5,20.81L43.32,0.25C43.045,0.085 42.73,-0.001 42.41,0Z" style="fill:rgb(102,106,110);fill-rule:nonzero;"/>
              <path d="M54.12,16C54.12,21.45 52.02,27.56 48.66,32.76L31.66,42.6C31.258,42.451 30.872,42.26 30.51,42.03L24.5,38.6C21.73,37 20,33.55 20,28.68C20,23.22 22.11,17.11 25.46,11.9L42.46,2.06C42.802,2.209 43.135,2.376 43.46,2.56L49.61,6.1L49.2,5.88C52.21,7.39 54.12,10.91 54.12,16Z" style="fill:none;fill-rule:nonzero;stroke:rgb(102,106,110);stroke-width:1.8px;"/>
              <path d="M31.45,15.48L25.36,11.94L42.49,2.06L48.56,5.56L31.45,15.48Z" style="fill:rgb(102,106,110);fill-rule:nonzero;"/>
              <path d="M82.56,32.55C82.56,38 80.45,44.11 77.09,49.32L60.09,59.16C59.689,59.003 59.304,58.809 58.94,58.58L59.07,58.66L28.81,41.1C26.02,39.48 24.3,36.05 24.29,31.17C24.29,25.72 26.4,19.6 29.75,14.41L46.75,4.57C47.096,4.706 47.431,4.87 47.75,5.06L78,22.62C77.867,22.542 77.731,22.472 77.59,22.41C80.65,23.91 82.54,27.43 82.56,32.55Z" style="fill:rgb(175,180,184);fill-rule:nonzero;"/>
              <path d="M59.97,31.97L29.75,14.41L46.84,4.5L77.12,22.08L59.97,31.97Z" style="fill:rgb(212,214,217);fill-rule:nonzero;"/>
              <path d="M62.86,67.05C61.504,67.739 59.896,67.739 58.54,67.05L45.54,59.54C45.035,59.314 44.69,58.831 44.64,58.28L44.64,55.28C44.69,54.737 45.032,54.262 45.53,54.04L48.71,52.23C49.418,51.627 49.849,50.759 49.9,49.83L49.9,35.97C49.711,32.999 51.333,30.191 54,28.87L71.9,18.52C72.752,17.893 73.882,17.781 74.84,18.23L92.06,28.23C92.902,28.832 93.36,29.84 93.26,30.87L93.26,38.09L98.37,41C98.87,41.227 99.213,41.704 99.27,42.25L99.27,45.25C99.219,45.79 98.883,46.264 98.39,46.49L62.86,67.05Z" style="fill:white;fill-rule:nonzero;"/>
              <path d="M62.86,67.05C61.504,67.739 59.896,67.739 58.54,67.05L45.54,59.54C45.033,59.316 44.687,58.832 44.64,58.28L44.64,55.28C44.694,55.835 45.042,56.32 45.55,56.55L58.55,64.05C59.91,64.739 61.52,64.739 62.88,64.05L65.62,62.46C66.509,61.876 67.07,60.902 67.13,59.84L67.13,45.98C67.13,43.37 67.47,41.04 71.23,38.88L89.13,28.53C91.41,27.21 93.26,28.27 93.26,30.88L93.26,44.73C93.26,45.73 93.95,46.09 94.78,45.61L98.33,43.54C98.826,43.315 99.165,42.842 99.22,42.3L99.22,45.3C99.173,45.842 98.836,46.317 98.34,46.54L62.86,67.05Z" style="fill:rgb(212,214,217);fill-rule:nonzero;"/>
              <path d="M69.75,63L69.75,44.71C69.746,43.527 70.308,42.411 71.26,41.71L89.15,31.37C89.98,30.89 90.67,31.45 90.67,32.63L90.67,50.92L69.75,63Z" style="fill:rgb(178,144,101);fill-rule:nonzero;"/>
              <path d="M69.81,63.09L69.81,44.8C69.814,43.619 70.374,42.507 71.32,41.8L89.21,31.43C90.04,30.95 90.73,31.52 90.73,32.69L90.73,50.98L69.81,63.09Z" style="fill:none;fill-rule:nonzero;stroke:rgb(102,106,110);stroke-width:1.8px;"/>
              <path d="M73.75,18C74.132,17.996 74.507,18.093 74.84,18.28L92.06,28.28C92.902,28.882 93.36,29.89 93.26,30.92L93.26,38.14L98.37,41C98.87,41.227 99.213,41.704 99.27,42.25L99.27,45.25C99.219,45.79 98.883,46.264 98.39,46.49L62.86,67.05C62.199,67.403 61.459,67.582 60.71,67.57C59.954,67.582 59.208,67.403 58.54,67.05L45.54,59.54C45.033,59.316 44.687,58.832 44.64,58.28L44.64,55.28C44.69,54.737 45.032,54.262 45.53,54.04L48.71,52.23C49.418,51.627 49.849,50.759 49.9,49.83L49.9,35.97C49.711,32.999 51.333,30.191 54,28.87L71.9,18.52C72.461,18.189 73.099,18.009 73.75,18M73.75,16.2C72.778,16.216 71.828,16.492 71,17L53.06,27.32C49.828,28.96 47.861,32.371 48.06,35.99L48.06,49.85C48.012,50.197 47.854,50.519 47.61,50.77L44.61,52.49C43.547,53.026 42.857,54.101 42.81,55.29L42.81,58.29C42.846,59.49 43.538,60.579 44.61,61.12L57.61,68.63C58.551,69.143 59.608,69.405 60.68,69.39C61.749,69.403 62.804,69.138 63.74,68.62L99.24,48.11C100.295,47.568 100.977,46.495 101.02,45.31L101.02,42.31C100.978,41.119 100.297,40.04 99.24,39.49L95.04,37.07L95.04,30.88C95.161,29.218 94.381,27.613 93,26.68L75.77,16.68C75.162,16.332 74.471,16.152 73.77,16.16L73.75,16.2Z" style="fill:rgb(102,106,110);fill-rule:nonzero;"/>
              <path d="M88.44,44.19C88.232,48.334 86.041,52.133 82.56,54.39C80.89,55.39 79.37,55.39 78.29,54.76L78.35,54.81L76.48,53.72C75.267,52.86 74.609,51.409 74.76,49.93C74.982,45.788 77.173,41.993 80.65,39.73C82.29,38.73 83.78,38.73 84.86,39.31L86.72,40.4C87.933,41.26 88.591,42.711 88.44,44.19Z" style="fill:rgb(147,114,77);fill-rule:nonzero;"/>
              <path d="M82.52,40.81C85.79,38.92 88.43,40.44 88.45,44.19C88.231,48.336 86.039,52.135 82.56,54.4C79.29,56.28 76.64,54.76 76.63,51.02C76.849,46.874 79.041,43.075 82.52,40.81Z" style="fill:rgb(178,144,101);fill-rule:nonzero;"/>
              <path d="M82.88,42.26C85.54,40.73 87.69,41.96 87.7,45.01C87.525,48.376 85.746,51.462 82.92,53.3C80.27,54.83 78.11,53.6 78.1,50.56C78.272,47.19 80.051,44.1 82.88,42.26Z" style="fill:rgb(70,71,73);fill-rule:nonzero;"/>
              <path d="M81,52.81C80.227,52.264 79.806,51.342 79.9,50.4C80.038,47.76 81.434,45.341 83.65,43.9C84.428,43.331 85.457,43.231 86.33,43.64L89.33,44.93C89.593,45.082 89.815,45.295 89.98,45.55C90.035,45.639 90.081,45.733 90.12,45.83C90.158,45.893 90.188,45.96 90.21,46.03C90.234,46.088 90.255,46.149 90.27,46.21C90.299,46.295 90.323,46.382 90.34,46.47L90.34,46.72C90.345,46.803 90.345,46.887 90.34,46.97L90.34,47.03C90.345,47.12 90.345,47.21 90.34,47.3L92.39,48.58L105.39,56.58C105.248,59.221 103.848,61.64 101.63,63.08C100.842,63.665 99.788,63.758 98.91,63.32L81,52.81Z" style="fill:url(#_Linear2);fill-rule:nonzero;"/>
              <path d="M85.33,43.35C85.68,43.348 86.025,43.437 86.33,43.61L89.33,44.92C89.592,45.078 89.814,45.293 89.98,45.55C90.035,45.639 90.081,45.733 90.12,45.83C90.16,45.888 90.19,45.952 90.21,46.02C90.234,46.078 90.255,46.139 90.27,46.2C90.298,46.285 90.321,46.372 90.34,46.46L90.34,47.03C90.345,47.12 90.345,47.21 90.34,47.3L105.43,56.55C105.286,59.191 103.887,61.609 101.67,63.05C101.161,63.367 100.579,63.546 99.98,63.57C99.627,63.57 99.281,63.473 98.98,63.29L81,52.79C80.222,52.243 79.796,51.317 79.89,50.37C80.028,47.73 81.424,45.311 83.64,43.87C84.149,43.554 84.731,43.375 85.33,43.35M85.33,41.55C84.415,41.572 83.522,41.834 82.74,42.31C79.973,44.083 78.236,47.097 78.09,50.38C77.975,51.977 78.743,53.514 80.09,54.38L98.17,64.87C98.773,65.233 99.466,65.42 100.17,65.41C101.087,65.39 101.981,65.124 102.76,64.64C105.543,62.886 107.288,59.867 107.42,56.58C107.411,55.958 107.087,55.381 106.56,55.05L92.18,46.27C92.185,46.227 92.185,46.183 92.18,46.14C92.153,45.994 92.116,45.851 92.07,45.71C92.07,45.6 92.01,45.51 91.98,45.42C91.933,45.297 91.88,45.177 91.82,45.06C91.744,44.87 91.646,44.689 91.53,44.52C91.218,44.041 90.796,43.644 90.3,43.36L90.11,43.26L87.11,41.99C86.559,41.696 85.944,41.545 85.32,41.55L85.33,41.55Z" style="fill:rgb(102,106,110);fill-rule:nonzero;"/>
              <path d="M98,60.94L105.54,56.59C105.404,59.233 104.003,61.655 101.78,63.09C99.75,64.29 98.05,63.32 98,60.94Z" style="fill:rgb(175,180,184);fill-rule:nonzero;"/>
              <path d="M98,60.91L82.94,51.7L90.47,47.35L105.53,56.56L98,60.91Z" style="fill:rgb(212,214,217);fill-rule:nonzero;"/>
              <path d="M90.5,47.34C90.5,44.95 88.8,43.99 86.72,45.19C84.514,46.637 83.13,49.055 83,51.69L90.53,47.34L90.5,47.34Z" style="fill:rgb(175,180,184);fill-rule:nonzero;"/>
            </g>
        <g transform="matrix(1,0,0,1,15082.6,70.2483)">
                <g transform="matrix(0.711036,0,0,0.725794,-12059.5,4169.41)">
                    <path d="M13604,12873.3L13604,12894.6C13604,12900.5 13599.1,12905.3 13593.1,12905.3L13501.3,12905.3C13495.3,12905.3 13490.4,12900.5 13490.4,12894.6L13490.4,12873.3C13490.4,12867.4 13495.3,12862.6 13501.3,12862.6L13593.1,12862.6C13599.1,12862.6 13604,12867.4 13604,12873.3Z" style="fill:rgb(222,251,249);"/>
                </g>
          <g transform="matrix(1,0,0,1,-16279.8,-1852.63)">
                    <g transform="matrix(1,0,0,1,14.7154,753.148)">
                        <g transform="matrix(0.663784,0,0,0.663784,13805.6,14612)">
                            <path d="M21,6.013L21,17.987C21,19.65 19.65,21 17.987,21L6.013,21C4.35,21 3,19.65 3,17.987L3,6.013C3,4.35 4.35,3 6.013,3L17.987,3C19.65,3 21,4.35 21,6.013Z" style="fill:none;stroke:black;stroke-width:2px;stroke-linecap:round;stroke-linejoin:round;stroke-miterlimit:4;"/>
                        </g>
                      <g transform="matrix(0.663784,0,0,0.663784,13805.6,14612)">
                            <path d="M12,8L12,16" style="fill:none;fill-rule:nonzero;stroke:black;stroke-width:2px;stroke-linecap:round;stroke-linejoin:round;stroke-miterlimit:4;"/>
                        </g>
                      <g transform="matrix(0.663784,0,0,0.663784,13805.6,14612)">
                            <path d="M8.5,14L15.5,10" style="fill:none;fill-rule:nonzero;stroke:black;stroke-width:2px;stroke-linecap:round;stroke-linejoin:round;stroke-miterlimit:4;"/>
                        </g>
                      <g transform="matrix(0.663784,0,0,0.663784,13805.6,14612)">
                            <path d="M8.5,10L15.5,14" style="fill:none;fill-rule:nonzero;stroke:black;stroke-width:2px;stroke-linecap:round;stroke-linejoin:round;stroke-miterlimit:4;"/>
                        </g>
                    </g>
            <g transform="matrix(1.10123,0,0,1.10123,-1361.38,-462.554)">
                        <g transform="matrix(15.6669,0,0,15.6669,13804.1,14385.5)">
                            <path d="M0.289,0.009C0.252,0.009 0.213,0.004 0.175,-0.006C0.136,-0.017 0.102,-0.032 0.074,-0.053C0.063,-0.06 0.056,-0.068 0.052,-0.077C0.049,-0.087 0.048,-0.096 0.05,-0.104C0.052,-0.113 0.056,-0.12 0.062,-0.126C0.068,-0.132 0.076,-0.135 0.086,-0.136C0.095,-0.137 0.106,-0.135 0.117,-0.128C0.146,-0.111 0.174,-0.098 0.201,-0.091C0.229,-0.083 0.257,-0.079 0.286,-0.079C0.318,-0.079 0.345,-0.084 0.367,-0.093C0.389,-0.102 0.405,-0.116 0.417,-0.134C0.428,-0.152 0.433,-0.174 0.433,-0.199C0.433,-0.237 0.421,-0.266 0.396,-0.285C0.371,-0.304 0.334,-0.313 0.287,-0.313L0.219,-0.313C0.203,-0.313 0.192,-0.317 0.184,-0.325C0.176,-0.333 0.172,-0.343 0.172,-0.357C0.172,-0.37 0.176,-0.381 0.184,-0.389C0.192,-0.396 0.203,-0.4 0.219,-0.4L0.277,-0.4C0.306,-0.4 0.33,-0.405 0.35,-0.415C0.37,-0.424 0.385,-0.438 0.396,-0.456C0.407,-0.473 0.413,-0.495 0.413,-0.52C0.413,-0.554 0.402,-0.58 0.379,-0.599C0.357,-0.617 0.325,-0.626 0.282,-0.626C0.255,-0.626 0.229,-0.622 0.204,-0.615C0.18,-0.607 0.155,-0.594 0.129,-0.576C0.119,-0.57 0.11,-0.567 0.1,-0.568C0.091,-0.568 0.084,-0.572 0.077,-0.577C0.071,-0.583 0.067,-0.59 0.065,-0.599C0.062,-0.608 0.063,-0.616 0.066,-0.626C0.069,-0.635 0.076,-0.643 0.086,-0.65C0.114,-0.671 0.146,-0.687 0.181,-0.698C0.216,-0.709 0.253,-0.714 0.29,-0.714C0.337,-0.714 0.377,-0.707 0.411,-0.692C0.444,-0.678 0.47,-0.657 0.487,-0.629C0.505,-0.602 0.514,-0.569 0.514,-0.531C0.514,-0.502 0.509,-0.476 0.498,-0.453C0.487,-0.43 0.472,-0.41 0.452,-0.393C0.433,-0.377 0.409,-0.366 0.381,-0.359L0.381,-0.37C0.43,-0.362 0.467,-0.342 0.494,-0.31C0.521,-0.279 0.534,-0.239 0.534,-0.192C0.534,-0.151 0.524,-0.115 0.505,-0.085C0.485,-0.054 0.457,-0.031 0.42,-0.015C0.384,0.001 0.34,0.009 0.289,0.009Z" style="fill-rule:nonzero;"/>
                        </g>
              <g transform="matrix(15.6669,0,0,15.6669,13813.9,14385.5)">
                            <path d="M0.248,0.009C0.219,0.009 0.188,0.004 0.156,-0.007C0.125,-0.017 0.096,-0.033 0.07,-0.053C0.062,-0.059 0.056,-0.067 0.054,-0.075C0.051,-0.084 0.051,-0.093 0.053,-0.102C0.055,-0.11 0.059,-0.117 0.065,-0.124C0.071,-0.13 0.078,-0.133 0.087,-0.134C0.096,-0.135 0.106,-0.132 0.116,-0.126C0.139,-0.109 0.161,-0.097 0.183,-0.09C0.206,-0.083 0.228,-0.079 0.25,-0.079C0.292,-0.079 0.327,-0.089 0.355,-0.109C0.384,-0.129 0.405,-0.159 0.42,-0.199C0.435,-0.239 0.442,-0.289 0.442,-0.348L0.442,-0.433L0.453,-0.433C0.448,-0.397 0.437,-0.366 0.42,-0.34C0.402,-0.314 0.379,-0.293 0.351,-0.279C0.323,-0.265 0.292,-0.258 0.258,-0.258C0.217,-0.258 0.181,-0.268 0.149,-0.287C0.117,-0.306 0.092,-0.333 0.074,-0.367C0.056,-0.401 0.047,-0.439 0.047,-0.482C0.047,-0.528 0.056,-0.568 0.076,-0.602C0.095,-0.637 0.122,-0.665 0.157,-0.685C0.191,-0.704 0.231,-0.714 0.275,-0.714C0.332,-0.714 0.38,-0.701 0.42,-0.674C0.46,-0.647 0.49,-0.607 0.511,-0.555C0.531,-0.503 0.542,-0.441 0.542,-0.368C0.542,-0.307 0.535,-0.253 0.522,-0.207C0.509,-0.16 0.489,-0.121 0.464,-0.089C0.439,-0.057 0.408,-0.032 0.372,-0.016C0.335,0.001 0.294,0.009 0.248,0.009ZM0.282,-0.343C0.309,-0.343 0.333,-0.349 0.353,-0.361C0.374,-0.373 0.39,-0.39 0.401,-0.412C0.413,-0.434 0.419,-0.459 0.419,-0.487C0.419,-0.516 0.413,-0.541 0.401,-0.562C0.39,-0.584 0.374,-0.601 0.353,-0.613C0.333,-0.625 0.309,-0.631 0.282,-0.631C0.255,-0.631 0.231,-0.625 0.21,-0.613C0.19,-0.601 0.174,-0.584 0.162,-0.562C0.151,-0.541 0.145,-0.516 0.145,-0.487C0.145,-0.459 0.151,-0.434 0.162,-0.412C0.174,-0.39 0.19,-0.373 0.21,-0.361C0.231,-0.349 0.255,-0.343 0.282,-0.343Z" style="fill-rule:nonzero;"/>
                        </g>
              <g transform="matrix(15.6669,0,0,15.6669,13823.7,14385.5)">
                            <path d="M0.138,-0C0.12,-0 0.106,-0.005 0.097,-0.014C0.087,-0.024 0.083,-0.038 0.083,-0.056L0.083,-0.649C0.083,-0.667 0.087,-0.681 0.097,-0.691C0.106,-0.7 0.12,-0.705 0.138,-0.705L0.503,-0.705C0.517,-0.705 0.527,-0.701 0.535,-0.694C0.542,-0.687 0.546,-0.677 0.546,-0.664C0.546,-0.65 0.542,-0.64 0.535,-0.632C0.527,-0.625 0.517,-0.621 0.503,-0.621L0.182,-0.621L0.182,-0.4L0.481,-0.4C0.496,-0.4 0.506,-0.396 0.514,-0.389C0.521,-0.382 0.524,-0.372 0.524,-0.358C0.524,-0.344 0.521,-0.334 0.514,-0.327C0.506,-0.32 0.496,-0.316 0.481,-0.316L0.182,-0.316L0.182,-0.084L0.503,-0.084C0.517,-0.084 0.527,-0.08 0.535,-0.073C0.542,-0.066 0.546,-0.056 0.546,-0.042C0.546,-0.028 0.542,-0.018 0.535,-0.011C0.527,-0.004 0.517,-0 0.503,-0L0.138,-0Z" style="fill-rule:nonzero;"/>
                        </g>
              <g transform="matrix(15.6669,0,0,15.6669,13833.3,14385.5)">
                            <path d="M0.137,0.007C0.12,0.007 0.106,0.003 0.097,-0.007C0.087,-0.016 0.083,-0.03 0.083,-0.048L0.083,-0.649C0.083,-0.667 0.087,-0.681 0.097,-0.691C0.106,-0.7 0.12,-0.705 0.138,-0.705L0.494,-0.705C0.509,-0.705 0.519,-0.701 0.526,-0.694C0.534,-0.687 0.537,-0.677 0.537,-0.664C0.537,-0.65 0.534,-0.64 0.526,-0.632C0.519,-0.625 0.509,-0.621 0.494,-0.621L0.186,-0.621L0.186,-0.396L0.474,-0.396C0.487,-0.396 0.498,-0.393 0.505,-0.386C0.513,-0.378 0.517,-0.368 0.517,-0.355C0.517,-0.341 0.513,-0.331 0.505,-0.323C0.498,-0.316 0.487,-0.312 0.474,-0.312L0.186,-0.312L0.186,-0.048C0.186,-0.011 0.169,0.007 0.137,0.007Z" style="fill-rule:nonzero;"/>
                        </g>
                    </g>
                </g>
            </g>
        <g transform="matrix(1,0,0,1,12649.4,13428.6)">
                <g>
                    <path d="M55.258,20.506L39.165,29.797C38.414,30.231 37.185,30.231 36.434,29.797L20.342,20.506C19.591,20.072 19.591,19.362 20.342,18.928L36.434,9.637C37.185,9.203 38.414,9.203 39.165,9.637L55.258,18.929C56.01,19.363 56.01,20.072 55.258,20.506Z" style="fill:rgb(92,96,100);fill-rule:nonzero;"/>
                </g>
          <path d="M71.772,35.667L42.717,18.892C40.013,17.33 35.587,17.33 32.882,18.892L3.829,35.667C1.124,37.229 1.124,39.783 3.829,41.345L32.883,58.119C35.588,59.681 40.014,59.681 42.718,58.119L71.773,41.346C74.476,39.783 74.476,37.228 71.772,35.667Z" style="fill:rgb(220,222,224);fill-rule:nonzero;"/>
          <g>
                    <path d="M37.8,60.19C35.781,60.19 33.875,59.731 32.432,58.898L3.378,42.124C1.78,41.202 0.9,39.917 0.9,38.505L0.9,22.584C0.9,21.173 1.78,19.888 3.378,18.965L32.433,2.192C33.875,1.359 35.781,0.9 37.801,0.9C39.819,0.9 41.725,1.359 43.168,2.192L72.222,18.966C73.82,19.888 74.701,21.173 74.701,22.584L74.701,38.505C74.701,39.916 73.82,41.201 72.222,42.124L43.167,58.898C41.724,59.731 39.818,60.19 37.8,60.19Z" style="fill:rgb(220,222,224);fill-rule:nonzero;"/>
            <path d="M37.8,1.8C39.583,1.8 41.366,2.191 42.717,2.971L71.772,19.745C73.124,20.525 73.8,21.555 73.8,22.584L73.8,38.505C73.8,39.534 73.123,40.564 71.772,41.344L42.717,58.119C41.365,58.9 39.582,59.291 37.8,59.291C36.017,59.291 34.235,58.9 32.882,58.119L3.829,41.344C2.476,40.564 1.801,39.534 1.801,38.505L1.801,22.584C1.801,21.555 2.477,20.525 3.829,19.745L32.882,2.971C34.235,2.19 36.018,1.8 37.8,1.8M37.8,0C35.626,0 33.56,0.501 31.983,1.412L2.929,18.187C1.067,19.261 0,20.864 0,22.584L0,38.505C0,40.226 1.067,41.828 2.929,42.903L31.983,59.676C33.561,60.587 35.627,61.089 37.801,61.089C39.975,61.089 42.041,60.587 43.618,59.676L72.672,42.903C74.533,41.828 75.601,40.225 75.601,38.505L75.601,22.584C75.601,20.863 74.534,19.261 72.672,18.186L43.618,1.413C42.041,0.501 39.974,0 37.8,0Z" style="fill:rgb(120,124,128);fill-rule:nonzero;"/>
                </g>
          <path d="M71.772,19.746L42.717,2.971C40.013,1.409 35.587,1.409 32.882,2.971L3.829,19.745C1.124,21.307 1.124,23.862 3.829,25.423L32.883,42.197C35.588,43.759 40.014,43.759 42.718,42.197L71.773,25.423C74.476,23.862 74.476,21.307 71.772,19.746Z" style="fill:rgb(220,222,224);fill-rule:nonzero;"/>
          <g>
                    <path d="M68.035,23.124L40.166,39.214C38.865,39.965 36.736,39.965 35.435,39.214L7.565,23.124C6.264,22.373 6.264,21.144 7.565,20.392L35.434,4.302C36.735,3.551 38.864,3.551 40.165,4.302L68.034,20.392C69.335,21.144 69.335,22.373 68.035,23.124Z" style="fill:white;fill-rule:nonzero;"/>
                </g>
          <g>
                    <path d="M55.258,16.227L39.166,6.937C38.415,6.503 37.186,6.503 36.435,6.937L20.343,16.228C19.941,16.46 19.761,16.77 19.789,17.076L19.78,17.076L19.78,19.719C19.78,20.005 19.968,20.291 20.343,20.508L36.435,29.799C37.186,30.233 38.415,30.233 39.166,29.799L55.259,20.508C55.635,20.291 55.822,20.005 55.822,19.719L55.822,17.076L55.813,17.073C55.839,16.768 55.659,16.458 55.258,16.227Z" style="fill:rgb(92,96,100);fill-rule:nonzero;"/>
                </g>
          <g>
                    <path d="M9.312,32.804C10.812,33.67 12.025,35.772 12.02,37.503C12.015,39.227 10.794,39.923 9.294,39.057C7.787,38.187 6.573,36.085 6.579,34.362C6.584,32.63 7.805,31.934 9.312,32.804Z" style="fill:rgb(189,193,197);fill-rule:nonzero;"/>
                </g>
          <g>
                    <g>
                        <path d="M42.717,42.198C40.013,43.76 35.587,43.76 32.882,42.198L32.882,58.119C35.587,59.681 40.013,59.681 42.717,58.119L42.717,42.198Z" style="fill:url(#_Linear3);fill-rule:nonzero;"/>
                    </g>
            <g>
                        <g>
                            <path d="M42.717,58.119L71.772,41.345C73.124,40.565 73.8,39.535 73.8,38.506L73.8,22.584C73.8,23.613 73.123,24.643 71.772,25.423L42.717,42.198L42.717,58.119Z" style="fill:rgb(189,193,197);fill-rule:nonzero;"/>
                        </g>
                    </g>
                </g>
          <g>
                    <path d="M55.258,17.805L39.165,27.096C38.414,27.53 37.185,27.53 36.434,27.096L20.342,17.805C19.591,17.371 19.591,16.661 20.342,16.227L36.434,6.936C37.185,6.502 38.414,6.502 39.165,6.936L55.258,16.227C56.01,16.661 56.01,17.371 55.258,17.805Z" style="fill:rgb(120,124,128);fill-rule:nonzero;"/>
                </g>
          <path d="M44.497,11.627C48.215,13.774 48.24,18.257 44.541,20.408C40.841,22.556 34.827,22.555 31.109,20.408C27.384,18.258 27.361,13.774 31.061,11.625C34.759,9.475 40.773,9.477 44.497,11.627Z" style="fill:white;fill-rule:nonzero;"/>
          <g>
                    <g>
                        <path d="M37.831,22.918C35.138,22.918 32.588,22.304 30.652,21.188C28.547,19.968 27.392,18.299 27.401,16.486L27.409,7.606C27.409,5.81 28.549,4.159 30.617,2.959C32.537,1.842 35.076,1.227 37.768,1.227C40.459,1.227 43.009,1.841 44.948,2.957C47.045,4.173 48.2,5.841 48.2,7.656L48.186,16.547C48.186,18.336 47.046,19.984 44.977,21.187C43.061,22.303 40.523,22.918 37.831,22.918Z" style="fill:rgb(220,222,224);fill-rule:nonzero;"/>
                      <path d="M37.768,2.127C40.2,2.127 42.635,2.665 44.499,3.737C46.368,4.82 47.301,6.237 47.301,7.655L47.286,16.545C47.286,17.949 46.362,19.34 44.526,20.408C42.682,21.482 40.258,22.018 37.831,22.018C35.399,22.018 32.963,21.48 31.102,20.408C29.233,19.325 28.295,17.908 28.301,16.49L28.308,7.607C28.308,6.203 29.226,4.806 31.069,3.737C32.916,2.664 35.34,2.127 37.768,2.127M37.768,0.327C34.92,0.327 32.22,0.986 30.164,2.182C27.807,3.548 26.508,5.475 26.508,7.607L26.5,16.489C26.491,18.632 27.804,20.579 30.199,21.967C32.274,23.162 34.983,23.819 37.831,23.819C40.68,23.819 43.379,23.16 45.433,21.965C47.788,20.594 49.087,18.67 49.087,16.547L49.1,7.659C49.1,5.507 47.787,3.562 45.401,2.18C43.324,0.984 40.614,0.327 37.768,0.327Z" style="fill:rgb(120,124,128);fill-rule:nonzero;"/>
                    </g>
            <path d="M44.493,3.739C48.209,5.885 48.234,9.367 44.537,11.516C40.84,13.663 34.829,13.662 31.113,11.516C27.39,9.367 27.367,5.885 31.065,3.738C34.761,1.589 40.772,1.59 44.493,3.739Z" style="fill:white;fill-rule:nonzero;"/>
                </g>
            </g>
        <g transform="matrix(0.67689,0,0,0.67689,14330.2,4334.47)">
                <g transform="matrix(0.711036,0,0,0.725794,-12059.5,4169.41)">
                    <path d="M13603.7,12873.3L13603.7,12894.6C13603.7,12900.5 13598.8,12905.3 13592.8,12905.3L13501.3,12905.3C13495.3,12905.3 13490.4,12900.5 13490.4,12894.6L13490.4,12873.3C13490.4,12867.4 13495.3,12862.6 13501.3,12862.6L13592.8,12862.6C13598.8,12862.6 13603.7,12867.4 13603.7,12873.3Z" style="fill:rgb(222,251,249);"/>
                </g>
          <g transform="matrix(1,0,0,1,-16279.8,-1852.63)">
                    <g transform="matrix(1,0,0,1,14.7154,753.148)">
                        <g transform="matrix(0.663784,0,0,0.663784,13805.6,14612)">
                            <path d="M21,7.451L21,16.549C21,19.005 19.005,21 16.549,21L7.451,21C4.995,21 3,19.005 3,16.549L3,7.451C3,4.995 4.995,3 7.451,3L16.549,3C19.005,3 21,4.995 21,7.451Z" style="fill:none;stroke:black;stroke-width:2px;stroke-linecap:round;stroke-linejoin:round;stroke-miterlimit:4;"/>
                        </g>
                      <g transform="matrix(0.663784,0,0,0.663784,13805.6,14612)">
                            <path d="M12,8L12,16" style="fill:none;fill-rule:nonzero;stroke:black;stroke-width:2px;stroke-linecap:round;stroke-linejoin:round;stroke-miterlimit:4;"/>
                        </g>
                      <g transform="matrix(0.663784,0,0,0.663784,13805.6,14612)">
                            <path d="M8.5,14L15.5,10" style="fill:none;fill-rule:nonzero;stroke:black;stroke-width:2px;stroke-linecap:round;stroke-linejoin:round;stroke-miterlimit:4;"/>
                        </g>
                      <g transform="matrix(0.663784,0,0,0.663784,13805.6,14612)">
                            <path d="M8.5,10L15.5,14" style="fill:none;fill-rule:nonzero;stroke:black;stroke-width:2px;stroke-linecap:round;stroke-linejoin:round;stroke-miterlimit:4;"/>
                        </g>
                    </g>
            <g transform="matrix(1.10123,0,0,1.10123,-1361.38,-462.554)">
                        <g transform="matrix(15.6669,0,0,15.6669,13804.1,14385.5)">
                            <path d="M0.131,-0C0.113,-0 0.1,-0.004 0.092,-0.012C0.084,-0.021 0.08,-0.032 0.08,-0.047C0.08,-0.056 0.082,-0.065 0.087,-0.074C0.091,-0.083 0.098,-0.092 0.107,-0.101L0.32,-0.329C0.353,-0.364 0.376,-0.396 0.391,-0.424C0.405,-0.453 0.412,-0.482 0.412,-0.512C0.412,-0.549 0.401,-0.577 0.378,-0.597C0.355,-0.616 0.322,-0.626 0.278,-0.626C0.251,-0.626 0.226,-0.622 0.201,-0.614C0.176,-0.606 0.152,-0.593 0.127,-0.575C0.117,-0.568 0.108,-0.565 0.099,-0.566C0.091,-0.567 0.083,-0.57 0.077,-0.576C0.071,-0.582 0.066,-0.589 0.064,-0.598C0.062,-0.607 0.062,-0.616 0.065,-0.625C0.068,-0.634 0.074,-0.642 0.084,-0.649C0.111,-0.67 0.143,-0.686 0.179,-0.697C0.215,-0.709 0.252,-0.714 0.289,-0.714C0.338,-0.714 0.379,-0.707 0.413,-0.692C0.446,-0.677 0.472,-0.655 0.489,-0.626C0.507,-0.597 0.515,-0.563 0.515,-0.521C0.515,-0.493 0.511,-0.466 0.502,-0.439C0.492,-0.412 0.479,-0.385 0.46,-0.357C0.442,-0.33 0.418,-0.301 0.389,-0.27L0.187,-0.058L0.187,-0.087L0.505,-0.087C0.52,-0.087 0.531,-0.083 0.539,-0.076C0.547,-0.069 0.551,-0.058 0.551,-0.044C0.551,-0.03 0.547,-0.019 0.539,-0.011C0.531,-0.004 0.52,-0 0.505,-0L0.131,-0Z" style="fill-rule:nonzero;"/>
                        </g>
              <g transform="matrix(15.6669,0,0,15.6669,13813.9,14385.5)">
                            <path d="M0.311,0.009C0.274,0.009 0.237,0.004 0.2,-0.006C0.162,-0.017 0.129,-0.033 0.098,-0.055C0.088,-0.061 0.081,-0.069 0.078,-0.078C0.074,-0.087 0.074,-0.096 0.076,-0.105C0.078,-0.114 0.082,-0.122 0.089,-0.128C0.095,-0.134 0.103,-0.138 0.112,-0.139C0.121,-0.139 0.131,-0.137 0.142,-0.13C0.168,-0.113 0.195,-0.1 0.222,-0.092C0.25,-0.083 0.279,-0.079 0.31,-0.079C0.34,-0.079 0.366,-0.085 0.388,-0.096C0.41,-0.108 0.427,-0.123 0.439,-0.144C0.45,-0.164 0.456,-0.188 0.456,-0.215C0.456,-0.257 0.444,-0.292 0.419,-0.318C0.394,-0.345 0.36,-0.358 0.317,-0.358C0.291,-0.358 0.267,-0.353 0.245,-0.344C0.223,-0.335 0.202,-0.321 0.182,-0.3C0.177,-0.294 0.171,-0.29 0.163,-0.285C0.155,-0.281 0.147,-0.279 0.138,-0.279C0.124,-0.279 0.113,-0.282 0.106,-0.29C0.099,-0.297 0.095,-0.307 0.095,-0.32L0.095,-0.659C0.095,-0.674 0.099,-0.685 0.107,-0.693C0.115,-0.701 0.126,-0.705 0.141,-0.705L0.476,-0.705C0.491,-0.705 0.502,-0.701 0.51,-0.694C0.518,-0.687 0.522,-0.676 0.522,-0.662C0.522,-0.648 0.518,-0.637 0.51,-0.63C0.502,-0.622 0.491,-0.618 0.476,-0.618L0.196,-0.618L0.196,-0.364L0.168,-0.364C0.186,-0.389 0.21,-0.409 0.239,-0.423C0.269,-0.437 0.302,-0.444 0.338,-0.444C0.383,-0.444 0.421,-0.435 0.454,-0.416C0.487,-0.397 0.512,-0.371 0.53,-0.337C0.548,-0.304 0.557,-0.264 0.557,-0.22C0.557,-0.175 0.547,-0.135 0.527,-0.101C0.507,-0.066 0.479,-0.039 0.442,-0.02C0.405,-0 0.362,0.009 0.311,0.009Z" style="fill-rule:nonzero;"/>
                        </g>
              <g transform="matrix(15.6669,0,0,15.6669,13823.7,14385.5)">
                            <path d="M0.3,0.009C0.218,0.009 0.156,-0.022 0.113,-0.084C0.07,-0.147 0.049,-0.237 0.049,-0.353C0.049,-0.432 0.058,-0.498 0.077,-0.552C0.096,-0.606 0.125,-0.646 0.162,-0.673C0.2,-0.701 0.246,-0.714 0.3,-0.714C0.382,-0.714 0.445,-0.684 0.488,-0.623C0.53,-0.562 0.552,-0.472 0.552,-0.354C0.552,-0.276 0.542,-0.21 0.523,-0.156C0.504,-0.102 0.475,-0.061 0.438,-0.033C0.401,-0.005 0.355,0.009 0.3,0.009ZM0.3,-0.077C0.351,-0.077 0.389,-0.1 0.414,-0.145C0.438,-0.19 0.45,-0.259 0.45,-0.354C0.45,-0.45 0.438,-0.519 0.414,-0.563C0.389,-0.606 0.351,-0.628 0.3,-0.628C0.249,-0.628 0.212,-0.606 0.187,-0.562C0.162,-0.519 0.15,-0.449 0.15,-0.354C0.15,-0.259 0.162,-0.19 0.187,-0.145C0.212,-0.1 0.249,-0.077 0.3,-0.077Z" style="fill-rule:nonzero;"/>
                        </g>
              <g transform="matrix(15.6669,0,0,15.6669,13833.5,14385.5)">
                            <path d="M0.138,-0C0.12,-0 0.106,-0.005 0.097,-0.014C0.087,-0.024 0.083,-0.038 0.083,-0.056L0.083,-0.649C0.083,-0.667 0.087,-0.681 0.097,-0.691C0.106,-0.7 0.12,-0.705 0.138,-0.705L0.331,-0.705C0.447,-0.705 0.537,-0.675 0.6,-0.614C0.663,-0.554 0.694,-0.467 0.694,-0.353C0.694,-0.296 0.686,-0.246 0.67,-0.202C0.654,-0.158 0.631,-0.121 0.6,-0.092C0.569,-0.062 0.531,-0.039 0.486,-0.023C0.441,-0.008 0.39,-0 0.331,-0L0.138,-0ZM0.186,-0.087L0.325,-0.087C0.369,-0.087 0.407,-0.092 0.44,-0.103C0.472,-0.115 0.499,-0.131 0.521,-0.153C0.543,-0.175 0.559,-0.203 0.57,-0.236C0.581,-0.27 0.586,-0.309 0.586,-0.353C0.586,-0.442 0.564,-0.508 0.521,-0.552C0.477,-0.596 0.412,-0.618 0.325,-0.618L0.186,-0.618L0.186,-0.087Z" style="fill-rule:nonzero;"/>
                        </g>
                    </g>
                </g>
            </g>
        </g>
    </g>
  <defs>
        <linearGradient id="_Linear1" x1="0" y1="0" x2="1" y2="0" gradientUnits="userSpaceOnUse" gradientTransform="matrix(9.84,0,0,9.84,51.88,82.62)"><stop offset="0" style="stop-color:rgb(212,214,217);stop-opacity:1"/><stop offset="1" style="stop-color:rgb(175,180,184);stop-opacity:1"/></linearGradient>
    <linearGradient id="_Linear2" x1="0" y1="0" x2="1" y2="0" gradientUnits="userSpaceOnUse" gradientTransform="matrix(1.0238e-15,-16.72,16.72,1.0238e-15,92.74,63.61)"><stop offset="0" style="stop-color:rgb(175,180,184);stop-opacity:1"/><stop offset="1" style="stop-color:rgb(212,214,217);stop-opacity:1"/></linearGradient>
    <linearGradient id="_Linear3" x1="0" y1="0" x2="1" y2="0" gradientUnits="userSpaceOnUse" gradientTransform="matrix(9.835,0,0,9.835,32.8823,50.7437)"><stop offset="0" style="stop-color:rgb(220,222,224);stop-opacity:1"/><stop offset="1" style="stop-color:rgb(189,193,197);stop-opacity:1"/></linearGradient>
    </defs>
</svg>
